<svg id="svg" version="1.1" xmlns="http://www.w3.org/2000/svg" xmlns:xlink="http://www.w3.org/1999/xlink" width="400" height="400" viewBox="0, 0, 400,400"><g id="svgg"><path id="path0" d="M220.343 176.595 C 209.689 179.395,209.000 181.315,209.000 208.200 C 209.000 234.755,209.683 237.069,218.477 240.309 L 221.400 241.386 238.400 241.391 L 255.400 241.397 258.600 240.232 C 267.275 237.074,268.200 234.026,268.200 208.600 L 268.200 189.800 267.090 186.400 C 265.004 180.007,263.221 178.344,256.618 176.632 C 250.835 175.133,226.002 175.107,220.343 176.595 M147.200 177.158 L 146.200 177.436 146.098 208.374 C 146.023 230.898,146.118 239.460,146.446 239.856 C 147.166 240.723,187.243 240.644,191.517 239.768 C 195.616 238.927,198.304 236.731,200.500 232.429 L 202.000 229.491 201.989 223.845 C 201.973 215.816,199.593 211.041,194.255 208.328 L 192.415 207.393 194.930 204.481 C 203.985 193.997,199.337 178.639,186.670 177.182 C 182.950 176.754,148.726 176.733,147.200 177.158 M272.729 177.084 C 271.080 177.336,270.656 178.107,271.541 179.243 C 271.951 179.770,272.603 180.817,272.990 181.571 C 273.377 182.324,274.437 183.989,275.347 185.269 C 276.256 186.550,277.466 188.363,278.035 189.299 C 278.604 190.234,279.594 191.861,280.235 192.912 C 280.876 193.964,281.850 195.437,282.400 196.186 C 282.950 196.934,283.940 198.464,284.600 199.585 C 285.260 200.706,286.655 202.828,287.700 204.301 C 290.221 207.853,290.239 209.041,287.822 212.474 C 286.845 213.863,285.376 216.161,284.558 217.580 C 283.740 219.000,282.315 221.160,281.391 222.380 C 280.467 223.601,279.410 225.140,279.041 225.800 C 278.305 227.119,277.328 228.628,273.955 233.654 C 269.330 240.546,269.220 240.400,279.034 240.400 C 287.443 240.400,288.447 240.142,289.459 237.719 C 289.787 236.934,290.383 235.821,290.782 235.246 C 292.808 232.329,297.651 224.726,298.073 223.799 C 299.375 220.942,300.980 221.165,302.989 224.481 C 303.828 225.867,305.164 227.968,305.957 229.150 C 308.317 232.667,310.400 236.059,310.400 236.384 C 310.400 236.551,311.139 237.527,312.041 238.552 L 313.683 240.417 321.298 240.308 C 331.314 240.166,331.251 240.271,326.000 232.400 C 324.220 229.733,323.105 228.024,320.389 223.800 C 319.964 223.140,318.848 221.497,317.908 220.148 C 316.969 218.800,315.228 216.144,314.040 214.247 C 312.851 212.350,311.636 210.596,311.340 210.350 C 310.591 209.729,310.664 207.613,311.464 206.729 C 311.830 206.325,312.325 205.672,312.564 205.278 C 314.115 202.727,314.934 201.431,317.750 197.074 C 319.483 194.393,321.299 191.570,321.785 190.800 C 322.271 190.030,323.658 187.870,324.867 186.000 C 330.416 177.419,330.173 177.990,328.581 177.264 C 327.272 176.668,314.405 176.632,313.111 177.222 C 312.129 177.669,311.498 178.520,308.825 183.000 C 305.636 188.343,302.050 194.204,301.523 194.935 C 300.593 196.225,299.025 195.078,297.219 191.788 C 296.348 190.201,294.836 187.735,293.859 186.308 C 292.882 184.881,291.336 182.352,290.423 180.689 C 289.137 178.346,288.484 177.568,287.522 177.233 C 286.354 176.826,275.154 176.713,272.729 177.084 M108.139 182.300 C 104.659 186.042,103.200 190.371,103.200 196.957 C 103.200 202.546,103.662 203.000,109.348 203.000 C 114.709 203.000,114.609 203.118,114.976 196.424 C 115.284 190.795,116.493 184.202,117.401 183.199 C 118.263 182.246,118.171 182.085,116.500 181.621 C 113.341 180.744,109.279 181.074,108.139 182.300 M124.786 182.448 C 119.736 187.847,118.543 202.190,123.082 202.940 C 129.971 204.079,131.369 203.283,131.772 198.000 C 132.144 193.126,133.573 184.812,134.272 183.461 C 135.138 181.786,134.595 181.507,130.045 181.288 L 126.050 181.095 124.786 182.448 M248.073 188.869 C 248.934 189.127,250.170 189.943,250.819 190.683 L 252.000 192.028 252.000 208.388 C 252.000 226.179,252.005 226.133,249.720 227.717 L 248.157 228.800 238.626 228.800 C 224.076 228.800,225.200 230.467,225.200 208.891 C 225.200 190.225,225.155 190.526,228.127 189.177 C 230.150 188.259,245.256 188.025,248.073 188.869 M181.683 191.081 C 183.904 193.249,183.964 198.072,181.802 200.600 L 180.433 202.200 171.987 202.335 C 161.272 202.507,162.000 202.982,162.000 195.818 C 162.000 189.056,161.163 189.600,171.563 189.600 L 180.166 189.600 181.683 191.081 M181.517 215.043 C 186.029 215.946,187.478 224.913,183.467 227.107 C 181.179 228.358,163.987 228.379,162.813 227.132 C 161.746 225.999,161.695 216.730,162.749 215.461 C 163.317 214.777,178.495 214.439,181.517 215.043 M222.600 257.212 C 221.940 257.393,220.371 257.800,219.112 258.115 C 209.826 260.445,208.684 264.189,208.901 291.600 C 209.096 316.242,209.820 318.475,218.600 321.498 L 221.800 322.600 238.600 322.585 L 255.400 322.571 258.557 321.497 C 263.240 319.906,265.422 317.490,267.027 312.123 L 268.200 308.200 268.200 289.600 C 268.200 257.718,267.327 256.759,238.346 256.841 C 230.346 256.863,223.260 257.030,222.600 257.212 M146.700 258.432 C 145.808 258.952,145.593 320.233,146.480 321.120 C 147.224 321.864,187.102 321.768,191.342 321.012 C 195.489 320.273,198.241 318.055,200.500 313.629 L 202.000 310.691 202.000 305.034 C 202.000 297.026,199.346 291.806,194.140 289.574 L 192.325 288.796 193.463 287.434 C 194.088 286.684,195.250 285.290,196.043 284.336 C 198.973 280.813,200.386 273.992,199.030 269.914 C 198.717 268.971,198.267 267.461,198.031 266.558 C 196.928 262.351,192.586 259.114,187.086 258.400 C 183.080 257.879,147.600 257.908,146.700 258.432 M272.141 258.397 C 270.548 259.040,270.911 259.909,275.766 267.085 C 276.628 268.358,277.726 270.030,278.206 270.800 C 278.687 271.570,279.640 273.100,280.324 274.200 C 281.009 275.300,281.943 276.740,282.400 277.400 C 282.857 278.060,283.790 279.500,284.473 280.600 C 285.156 281.700,286.590 283.901,287.658 285.491 C 290.186 289.254,290.207 290.286,287.822 293.674 C 286.845 295.063,285.376 297.361,284.558 298.780 C 283.740 300.200,282.323 302.360,281.409 303.580 C 279.810 305.715,278.984 306.977,277.208 310.000 C 276.756 310.770,275.768 312.210,275.012 313.200 C 269.054 321.009,269.343 321.600,279.114 321.599 C 287.183 321.597,288.754 321.236,289.389 319.235 C 289.700 318.254,291.287 315.632,294.937 310.066 C 296.428 307.793,297.852 305.484,298.102 304.936 C 299.462 301.951,301.033 302.359,303.385 306.305 C 304.400 308.007,305.751 310.120,306.388 311.000 C 307.025 311.880,308.214 313.770,309.029 315.200 C 309.845 316.630,311.154 318.655,311.939 319.700 L 313.364 321.600 321.275 321.600 L 329.185 321.600 329.425 320.643 C 329.661 319.703,329.027 318.098,327.592 316.000 C 326.752 314.773,324.180 310.902,322.714 308.660 C 322.117 307.747,321.341 306.492,320.990 305.872 C 320.638 305.251,319.578 303.721,318.634 302.472 C 317.690 301.222,316.681 299.750,316.393 299.200 C 315.480 297.457,311.622 291.661,311.203 291.402 C 310.603 291.031,310.716 288.568,311.357 288.035 C 311.664 287.781,312.519 286.581,313.257 285.369 C 313.996 284.156,316.016 280.968,317.746 278.282 C 319.476 275.597,321.291 272.770,321.780 272.000 C 322.269 271.230,323.658 269.070,324.867 267.200 C 331.250 257.330,331.563 258.031,320.758 258.013 C 312.020 257.998,312.462 257.800,309.609 263.008 C 308.647 264.763,307.517 266.650,307.098 267.200 C 305.957 268.697,303.784 272.236,302.520 274.655 C 300.822 277.905,299.603 277.402,296.834 272.310 C 295.910 270.610,294.982 269.113,294.772 268.982 C 294.561 268.852,294.029 268.083,293.590 267.273 C 293.151 266.463,292.087 264.679,291.225 263.309 C 290.364 261.939,289.539 260.437,289.391 259.972 C 288.830 258.205,275.609 256.998,272.141 258.397 M344.000 263.600 C 343.444 264.156,343.200 264.933,343.200 266.145 C 343.200 267.105,343.034 268.770,342.831 269.845 C 342.628 270.920,342.268 273.556,342.029 275.701 C 341.791 277.847,341.379 280.413,341.115 281.404 C 340.424 283.986,340.943 284.377,345.231 284.501 C 348.334 284.591,348.740 284.513,349.887 283.600 C 354.611 279.841,356.332 263.756,352.085 263.054 C 348.711 262.496,344.843 262.757,344.000 263.600 M361.322 263.204 C 360.310 263.612,360.146 264.372,359.813 270.200 C 359.687 272.400,359.195 276.231,358.720 278.714 C 357.647 284.323,357.680 284.379,362.232 284.509 C 366.113 284.620,367.259 283.912,369.212 280.200 C 371.442 275.961,372.446 267.196,371.018 264.435 C 370.228 262.906,364.019 262.118,361.322 263.204 M249.318 270.554 C 252.027 271.900,252.000 271.705,252.000 289.754 C 252.000 307.370,252.004 307.334,249.720 308.917 L 248.157 310.000 238.538 310.000 C 224.119 310.000,225.214 311.651,225.206 289.880 C 225.199 270.613,224.977 271.625,229.600 269.869 C 231.289 269.228,247.803 269.802,249.318 270.554 M181.683 272.281 C 183.899 274.445,183.976 279.268,181.835 281.800 L 180.483 283.400 172.005 283.529 C 161.263 283.693,162.000 284.173,162.000 277.018 C 162.000 270.256,161.163 270.800,171.563 270.800 L 180.166 270.800 181.683 272.281 M183.329 297.151 C 185.212 298.321,185.600 299.287,185.600 302.807 C 185.600 308.695,185.061 308.960,172.745 309.131 L 163.289 309.263 162.645 308.342 C 161.361 306.510,161.884 297.268,163.325 296.296 C 164.608 295.430,181.740 296.162,183.329 297.151 " stroke="none" fill="#0d1af3" fill-rule="evenodd"></path><path id="path1" d="M157.349 43.413 C 153.621 43.783,151.624 44.175,150.465 44.767 C 149.567 45.225,148.595 45.600,148.305 45.600 C 143.997 45.600,135.871 53.388,132.238 61.000 C 131.398 62.760,130.451 64.740,130.134 65.400 C 129.817 66.060,129.143 68.259,128.636 70.287 L 127.715 73.973 128.557 75.189 C 129.094 75.964,129.981 76.567,131.000 76.850 C 131.880 77.095,133.680 77.627,135.000 78.033 C 136.320 78.439,139.136 79.045,141.258 79.380 C 143.380 79.714,145.622 80.180,146.241 80.416 C 149.759 81.753,173.435 81.755,176.952 80.418 C 177.584 80.178,180.013 79.706,182.351 79.369 C 184.688 79.032,187.230 78.556,188.000 78.312 C 188.770 78.067,190.740 77.582,192.378 77.234 C 198.097 76.017,198.012 73.322,191.865 60.810 C 186.908 50.720,179.006 44.748,168.800 43.379 C 163.957 42.729,164.248 42.729,157.349 43.413 M73.400 43.561 C 70.310 43.952,70.253 44.035,70.539 47.740 C 70.912 52.573,70.931 52.584,78.492 52.468 C 85.986 52.352,86.000 52.344,86.000 47.605 C 86.000 45.597,85.823 44.358,85.500 44.103 C 84.878 43.611,76.104 43.218,73.400 43.561 M91.300 44.204 C 89.772 45.293,89.958 50.831,91.562 51.973 C 92.970 52.976,102.963 53.210,104.800 52.284 C 106.191 51.582,106.508 46.316,105.252 44.764 C 104.226 43.496,92.929 43.042,91.300 44.204 M62.200 46.001 C 59.443 46.628,55.093 48.469,53.117 49.844 C 48.264 53.222,48.721 52.686,49.464 54.125 C 51.481 58.033,54.482 59.678,57.064 58.293 C 57.979 57.802,60.454 56.550,62.564 55.511 L 66.400 53.623 66.400 51.844 C 66.400 48.093,64.517 45.473,62.200 46.001 M43.355 57.192 C 41.606 57.899,34.236 66.888,33.862 68.770 C 33.593 70.124,34.033 70.473,37.600 71.739 C 42.663 73.536,42.956 73.410,46.749 67.800 C 47.493 66.700,48.619 65.251,49.251 64.581 C 51.113 62.605,50.828 61.636,47.621 59.045 C 44.678 56.667,44.667 56.662,43.355 57.192 M30.523 77.457 C 29.044 80.686,28.675 88.077,29.917 89.600 C 30.696 90.556,30.901 90.596,34.591 90.500 C 40.379 90.351,40.052 90.751,40.835 82.882 C 41.398 77.213,41.532 77.512,37.829 76.168 C 33.202 74.488,31.766 74.742,30.523 77.457 M127.610 90.188 C 126.745 91.230,128.785 104.060,130.155 106.200 C 130.437 106.640,130.866 107.579,131.108 108.287 C 132.807 113.245,139.384 120.894,143.709 122.940 C 144.944 123.524,146.056 124.167,146.181 124.370 C 146.307 124.573,146.992 124.864,147.705 125.018 C 148.417 125.172,149.682 125.643,150.516 126.065 C 154.112 127.886,168.045 127.879,172.168 126.056 C 173.130 125.630,174.430 125.169,175.058 125.030 C 176.235 124.771,179.686 123.122,181.800 121.808 C 184.776 119.959,191.600 112.354,191.600 110.886 C 191.600 110.722,191.979 109.881,192.442 109.016 C 193.730 106.614,195.193 102.132,195.778 98.800 C 197.528 88.826,197.119 88.332,190.687 92.651 C 188.439 94.160,185.250 95.994,183.600 96.726 C 181.950 97.458,179.697 98.494,178.594 99.028 C 177.491 99.563,176.231 100.004,175.794 100.009 C 175.357 100.014,174.201 100.380,173.224 100.823 C 169.830 102.363,156.688 102.850,152.000 101.609 C 149.687 100.998,145.903 99.642,144.200 98.817 C 143.320 98.390,141.070 97.311,139.200 96.419 C 137.330 95.528,134.450 93.736,132.800 92.439 C 129.393 89.759,128.344 89.304,127.610 90.188 M33.200 94.772 C 29.268 95.350,28.971 95.980,29.337 102.959 C 29.653 108.970,29.664 108.982,34.864 109.319 C 40.328 109.673,40.400 109.580,40.400 102.184 C 40.400 94.220,39.968 93.776,33.200 94.772 M168.354 112.945 C 168.941 113.652,165.910 119.779,164.524 120.686 C 163.428 121.405,155.888 121.248,155.132 120.492 C 154.017 119.377,152.159 114.005,152.542 113.007 C 152.869 112.154,167.650 112.097,168.354 112.945 M32.457 114.030 C 29.614 114.589,29.600 114.623,29.600 120.867 C 29.600 128.037,29.849 128.400,34.760 128.400 C 39.852 128.400,40.166 127.980,40.327 120.936 C 40.499 113.395,39.619 112.622,32.457 114.030 M195.200 122.053 C 194.430 122.520,192.810 123.745,191.600 124.774 C 184.895 130.477,176.316 134.610,169.209 135.560 C 165.073 136.113,163.827 138.264,166.244 140.680 L 167.287 141.724 178.931 141.445 C 189.092 141.201,190.672 141.078,191.336 140.483 C 192.549 139.394,197.343 131.912,199.900 127.118 C 202.154 122.893,199.149 119.655,195.200 122.053 M123.329 122.609 C 119.963 124.627,120.021 124.989,125.545 136.496 C 128.400 142.441,127.347 142.088,141.736 141.926 L 152.872 141.800 153.636 140.856 C 155.552 138.488,154.391 135.861,151.245 135.444 C 145.929 134.738,137.521 130.897,132.400 126.832 C 131.410 126.047,129.716 124.548,128.635 123.502 C 126.393 121.332,125.664 121.210,123.329 122.609 M208.277 127.518 C 206.973 127.680,206.381 128.525,203.790 133.915 C 200.291 141.195,200.544 141.600,208.592 141.600 C 215.841 141.600,216.339 141.171,216.003 135.222 C 215.746 130.665,212.113 127.043,208.277 127.518 M110.200 128.459 C 104.877 131.354,101.675 138.075,104.347 140.747 C 105.436 141.836,117.504 142.080,118.375 141.031 C 118.924 140.368,118.377 137.910,117.394 136.624 C 117.067 136.196,116.800 135.582,116.800 135.258 C 116.800 134.154,114.040 128.850,113.245 128.424 C 112.247 127.890,111.226 127.902,110.200 128.459 M30.960 133.371 C 28.776 134.322,28.368 145.919,30.471 147.252 C 31.122 147.665,38.431 147.700,39.040 147.294 C 40.748 146.153,41.142 134.565,39.511 133.423 C 38.380 132.630,32.739 132.597,30.960 133.371 M30.905 152.020 C 29.221 152.541,29.109 153.079,29.269 159.932 C 29.429 166.803,29.223 166.536,34.511 166.732 C 40.180 166.942,40.158 166.969,40.328 159.438 C 40.493 152.156,40.448 152.085,35.600 151.811 C 33.730 151.706,31.617 151.800,30.905 152.020 M31.158 171.226 C 28.967 172.071,28.073 183.566,30.089 184.977 C 31.335 185.850,38.475 185.868,39.343 185.000 C 40.695 183.648,40.795 173.023,39.467 171.696 C 38.651 170.879,32.901 170.554,31.158 171.226 M239.200 175.581 C 247.670 175.710,254.960 175.961,255.400 176.138 L 256.200 176.460 255.400 175.930 C 254.772 175.514,251.283 175.394,239.200 175.373 L 223.800 175.347 239.200 175.581 M220.600 176.211 C 219.720 176.501,219.270 176.750,219.600 176.763 C 219.930 176.777,221.010 176.533,222.000 176.221 C 222.990 175.909,223.440 175.660,223.000 175.669 C 222.560 175.677,221.480 175.921,220.600 176.211 M146.080 177.280 C 145.713 177.647,145.623 185.034,145.696 208.580 L 145.793 239.400 145.996 208.418 L 146.200 177.436 147.200 177.158 C 148.038 176.925,148.067 176.873,147.380 176.840 C 146.929 176.818,146.344 177.016,146.080 177.280 M185.705 177.087 C 186.314 177.179,187.214 177.177,187.705 177.082 C 188.197 176.987,187.700 176.911,186.600 176.914 C 185.500 176.917,185.097 176.995,185.705 177.087 M259.200 177.238 C 262.039 178.121,264.233 179.937,265.599 182.536 C 266.312 183.891,266.785 184.523,266.650 183.939 C 265.976 181.026,262.087 177.432,259.141 177.000 L 257.800 176.803 259.200 177.238 M271.100 177.500 C 270.467 178.210,272.405 182.210,274.250 184.000 C 274.841 184.574,274.272 183.571,271.925 179.902 C 270.731 178.035,270.924 177.360,272.729 177.084 L 273.800 176.920 272.762 176.860 C 272.191 176.827,271.443 177.115,271.100 177.500 M287.677 177.257 C 288.416 177.528,289.214 178.493,290.213 180.326 C 291.962 183.533,295.704 189.230,295.920 189.014 C 296.004 188.929,295.282 187.721,294.313 186.330 C 293.345 184.938,291.785 182.404,290.848 180.699 C 289.218 177.736,288.282 176.762,287.126 176.832 C 286.837 176.849,287.085 177.041,287.677 177.257 M311.864 177.700 C 311.370 178.195,310.204 179.950,309.273 181.600 C 308.342 183.250,307.294 185.050,306.945 185.600 L 306.310 186.600 307.144 185.669 C 307.602 185.158,308.703 183.448,309.589 181.869 C 311.482 178.498,311.929 177.898,313.000 177.283 C 313.440 177.031,313.567 176.819,313.282 176.812 C 312.997 176.805,312.359 177.205,311.864 177.700 M328.700 177.288 C 330.145 177.985,330.155 177.962,325.122 185.532 C 324.050 187.145,323.363 188.347,323.595 188.203 C 324.105 187.888,329.014 180.447,329.689 178.965 C 330.176 177.895,329.393 176.752,328.224 176.827 C 327.991 176.842,328.205 177.049,328.700 177.288 M189.600 177.575 C 193.465 178.758,196.554 181.426,197.817 184.672 C 198.301 185.914,198.368 185.975,198.175 185.000 C 197.933 183.777,196.982 182.084,195.668 180.540 C 194.795 179.513,190.319 177.186,189.311 177.234 C 188.836 177.257,188.932 177.370,189.600 177.575 M215.000 178.202 C 213.362 179.201,210.390 182.534,210.412 183.347 C 210.419 183.596,210.629 183.440,210.878 183.000 C 211.903 181.193,213.657 179.417,215.473 178.348 C 216.533 177.724,217.220 177.216,217.000 177.219 C 216.780 177.222,215.880 177.664,215.000 178.202 M116.700 181.648 C 118.132 182.061,118.307 182.448,117.400 183.200 C 117.070 183.474,116.800 183.880,116.800 184.103 C 116.800 184.326,117.192 184.010,117.671 183.401 C 118.654 182.151,117.990 181.159,116.224 181.236 C 115.673 181.260,115.831 181.397,116.700 181.648 M124.049 182.799 C 122.524 184.696,120.791 188.274,120.850 189.400 L 120.893 190.200 121.086 189.400 C 121.508 187.658,123.587 183.730,124.738 182.500 C 125.407 181.785,125.815 181.200,125.644 181.200 C 125.474 181.200,124.756 181.919,124.049 182.799 M107.390 182.500 C 106.340 183.699,104.323 186.857,104.497 187.030 C 104.572 187.106,105.212 186.320,105.918 185.284 C 106.623 184.248,107.493 182.995,107.849 182.500 C 108.206 182.005,108.426 181.600,108.338 181.600 C 108.250 181.600,107.823 182.005,107.390 182.500 M134.558 181.888 C 134.709 182.157,134.555 182.913,134.216 183.568 C 133.877 184.224,133.600 184.994,133.600 185.280 C 133.600 185.566,133.985 185.024,134.455 184.074 C 135.145 182.680,135.211 182.258,134.796 181.874 C 134.399 181.507,134.345 181.510,134.558 181.888 M275.332 185.600 C 275.678 186.150,276.887 188.167,278.018 190.082 C 279.149 191.997,280.357 193.797,280.702 194.082 C 281.422 194.675,281.277 194.398,279.198 191.200 C 278.554 190.210,277.667 188.770,277.227 188.000 C 276.787 187.230,276.039 186.150,275.564 185.600 L 274.702 184.600 275.332 185.600 M209.217 186.941 C 208.945 187.911,208.809 189.041,208.915 189.452 C 209.055 189.998,209.120 189.919,209.154 189.160 C 209.179 188.588,209.401 187.543,209.646 186.839 C 209.892 186.135,210.007 185.473,209.901 185.368 C 209.796 185.263,209.488 185.971,209.217 186.941 M267.006 186.000 C 267.538 188.502,268.346 190.921,268.342 190.000 C 268.340 189.450,267.991 188.100,267.566 187.000 C 267.141 185.900,266.890 185.450,267.006 186.000 M198.439 186.600 C 198.424 186.820,198.671 187.720,198.988 188.600 C 199.305 189.480,199.565 189.840,199.564 189.400 C 199.564 188.572,198.485 185.890,198.439 186.600 M115.641 189.333 C 115.398 190.726,115.224 192.751,115.254 193.833 C 115.303 195.596,115.340 195.506,115.607 192.970 C 115.772 191.414,116.033 189.389,116.188 188.470 C 116.343 187.552,116.383 186.800,116.276 186.800 C 116.169 186.800,115.884 187.940,115.641 189.333 M304.888 188.700 C 304.467 189.305,303.449 191.015,302.626 192.500 C 301.804 193.985,301.007 195.200,300.855 195.200 C 300.095 195.200,298.757 193.788,297.639 191.807 C 296.954 190.593,296.306 189.600,296.200 189.600 C 295.593 189.600,298.927 194.644,299.857 195.132 C 301.162 195.815,301.043 195.937,303.994 190.900 C 305.936 187.585,306.315 186.652,304.888 188.700 M228.127 189.177 C 226.451 189.938,225.182 191.640,225.218 193.080 C 225.227 193.476,225.480 193.112,225.780 192.271 C 226.925 189.061,228.361 188.705,239.489 188.869 C 244.377 188.941,248.067 188.878,247.689 188.728 C 245.914 188.027,229.847 188.396,228.127 189.177 M132.490 191.710 C 132.236 193.299,131.912 196.130,131.770 198.000 C 131.406 202.810,131.085 203.201,127.491 203.196 C 123.052 203.189,121.658 202.856,121.000 201.645 C 120.688 201.070,120.425 200.805,120.416 201.056 C 120.326 203.606,129.331 204.886,131.144 202.581 C 131.623 201.972,132.000 200.915,132.000 200.183 C 132.000 199.463,132.284 196.681,132.632 194.002 C 133.325 188.665,133.228 187.102,132.490 191.710 M322.000 190.502 C 321.450 191.395,320.588 192.772,320.085 193.563 L 319.171 195.000 320.085 193.929 C 321.233 192.585,323.339 189.204,323.145 189.017 C 323.065 188.941,322.550 189.608,322.000 190.502 M250.094 190.367 L 251.400 191.534 251.609 208.467 L 251.817 225.400 251.909 208.714 L 252.000 192.028 250.759 190.614 C 250.076 189.836,249.353 189.200,249.152 189.200 C 248.952 189.200,249.375 189.725,250.094 190.367 M162.480 190.080 C 162.155 190.405,162.000 192.262,162.000 195.818 C 162.000 202.900,161.359 202.450,171.241 202.300 L 179.000 202.182 171.180 202.091 C 161.684 201.981,162.400 202.494,162.400 195.800 C 162.400 192.258,162.556 190.404,162.880 190.080 C 163.144 189.816,163.270 189.600,163.160 189.600 C 163.050 189.600,162.744 189.816,162.480 190.080 M179.200 189.888 C 183.667 190.686,184.329 199.877,180.049 201.672 C 179.470 201.914,179.469 201.947,180.033 201.972 C 180.381 201.987,181.236 201.291,181.933 200.423 C 184.778 196.883,182.880 189.450,179.183 189.654 L 178.200 189.709 179.200 189.888 M31.552 190.869 C 29.519 191.411,29.200 192.404,29.200 198.200 C 29.200 205.458,29.304 205.585,35.254 205.595 C 39.906 205.602,40.000 205.459,40.000 198.394 C 40.000 190.550,38.329 189.062,31.552 190.869 M199.728 192.800 C 199.728 194.230,199.801 194.815,199.889 194.100 C 199.978 193.385,199.978 192.215,199.889 191.500 C 199.801 190.785,199.728 191.370,199.728 192.800 M208.588 209.600 C 208.625 226.609,208.711 229.197,209.287 230.600 C 210.053 232.467,210.220 232.037,209.521 229.997 C 209.189 229.031,208.965 222.672,208.794 209.400 L 208.547 190.200 208.588 209.600 M103.050 192.050 C 102.913 192.738,102.804 195.033,102.809 197.150 C 102.822 202.782,103.682 203.600,109.592 203.600 C 114.535 203.600,115.233 202.984,115.128 198.718 L 115.056 195.800 114.828 198.600 C 114.473 202.963,114.427 203.000,109.394 203.000 C 103.351 203.000,103.042 202.633,103.272 195.724 C 103.449 190.424,103.432 190.141,103.050 192.050 M120.140 196.800 C 120.140 198.670,120.209 199.435,120.293 198.500 C 120.377 197.565,120.377 196.035,120.293 195.100 C 120.209 194.165,120.140 194.930,120.140 196.800 M316.900 198.359 C 315.779 200.096,314.591 202.045,314.258 202.688 C 313.925 203.332,313.371 204.092,313.026 204.378 C 312.682 204.664,312.400 205.070,312.400 205.280 C 312.400 205.780,314.103 203.730,314.958 202.200 C 315.327 201.540,316.156 200.190,316.800 199.200 C 318.279 196.927,319.262 195.200,319.078 195.200 C 319.000 195.200,318.020 196.622,316.900 198.359 M198.425 198.605 C 197.660 200.941,196.937 202.157,194.937 204.473 L 192.415 207.393 194.239 208.320 C 195.242 208.830,196.980 210.182,198.101 211.324 L 200.139 213.400 198.399 211.261 C 197.416 210.052,195.907 208.756,194.930 208.281 C 192.777 207.235,192.749 207.431,195.500 204.308 C 197.591 201.935,200.205 196.472,199.559 195.825 C 199.466 195.733,198.956 196.984,198.425 198.605 M282.428 196.800 C 282.894 197.570,284.595 200.222,286.207 202.693 C 287.820 205.164,289.222 207.504,289.323 207.893 C 289.478 208.490,289.514 208.473,289.554 207.789 C 289.579 207.343,288.745 205.773,287.700 204.301 C 286.655 202.828,285.260 200.699,284.600 199.569 C 283.940 198.439,282.990 197.038,282.489 196.457 L 281.579 195.400 282.428 196.800 M311.462 206.731 C 310.511 207.783,310.621 209.722,311.684 210.638 L 312.569 211.400 311.884 210.314 C 311.021 208.943,311.013 207.670,311.862 206.731 C 312.226 206.329,312.434 206.000,312.324 206.000 C 312.214 206.000,311.826 206.329,311.462 206.731 M29.972 210.428 C 28.760 211.640,28.933 223.325,30.176 224.233 C 31.330 225.075,38.516 225.027,39.371 224.171 C 40.290 223.253,40.295 211.799,39.377 210.489 C 38.464 209.185,31.262 209.138,29.972 210.428 M287.578 212.228 C 286.600 213.661,285.066 216.075,284.169 217.592 C 283.272 219.108,281.903 221.126,281.126 222.075 C 280.350 223.024,279.320 224.520,278.837 225.400 C 277.382 228.050,276.212 229.903,275.487 230.704 C 275.109 231.122,274.800 231.609,274.800 231.786 C 274.800 232.277,276.847 229.515,278.200 227.199 C 278.860 226.069,280.238 224.001,281.263 222.603 C 282.287 221.206,283.783 218.924,284.585 217.531 C 285.388 216.139,286.852 213.852,287.839 212.450 C 288.826 211.047,289.571 209.837,289.494 209.761 C 289.418 209.684,288.555 210.795,287.578 212.228 M314.308 214.626 C 315.172 215.932,316.112 217.450,316.398 218.000 C 316.683 218.550,317.659 219.990,318.565 221.200 C 319.471 222.410,320.989 224.695,321.939 226.278 C 322.888 227.861,323.942 229.386,324.281 229.667 C 324.620 229.948,324.470 229.537,323.948 228.752 C 323.427 227.967,322.550 226.575,322.000 225.658 C 321.450 224.741,320.182 222.868,319.181 221.495 C 318.181 220.123,316.591 217.705,315.649 216.122 C 314.706 214.539,313.666 213.020,313.337 212.747 C 313.008 212.475,313.445 213.320,314.308 214.626 M162.900 215.256 C 162.625 215.533,162.411 216.039,162.425 216.380 C 162.441 216.760,162.591 216.652,162.812 216.100 C 163.172 215.205,163.221 215.200,172.000 215.200 C 181.331 215.200,182.602 215.402,184.365 217.165 C 184.824 217.624,185.200 217.829,185.200 217.620 C 185.200 217.412,184.539 216.737,183.732 216.120 L 182.264 215.000 172.832 214.876 C 165.647 214.782,163.281 214.873,162.900 215.256 M201.130 216.382 C 201.498 217.251,201.856 217.804,201.924 217.609 C 202.050 217.249,200.913 214.800,200.619 214.800 C 200.531 214.800,200.761 215.512,201.130 216.382 M162.086 221.625 C 161.959 228.466,161.324 228.097,172.945 227.932 C 180.760 227.820,182.395 227.693,183.452 227.115 C 184.610 226.481,185.452 225.318,185.046 224.913 C 184.951 224.818,184.763 225.086,184.629 225.509 C 184.119 227.116,182.658 227.368,172.990 227.519 C 161.699 227.695,162.483 228.130,162.299 221.584 L 162.171 217.000 162.086 221.625 M185.337 221.400 C 185.339 223.160,185.409 223.830,185.493 222.889 C 185.578 221.949,185.577 220.509,185.491 219.689 C 185.405 218.870,185.336 219.640,185.337 221.400 M202.155 223.800 C 202.156 226.660,202.220 227.778,202.297 226.283 C 202.374 224.789,202.374 222.449,202.296 221.083 C 202.218 219.718,202.155 220.940,202.155 223.800 M299.500 222.229 C 298.895 222.557,298.400 222.904,298.400 223.000 C 298.400 223.255,299.708 222.748,300.358 222.241 C 300.782 221.911,301.023 221.985,301.358 222.547 C 303.151 225.555,306.922 231.381,307.218 231.600 C 307.367 231.710,307.809 232.430,308.201 233.200 C 308.916 234.606,310.400 236.694,310.400 236.294 C 310.400 236.058,308.272 232.637,305.800 228.898 C 304.920 227.567,303.524 225.381,302.699 224.039 C 301.050 221.361,301.075 221.375,299.500 222.229 M225.236 224.611 C 225.150 226.556,228.130 228.833,230.647 228.747 L 232.200 228.693 230.371 228.436 C 228.189 228.129,226.171 226.661,225.649 225.000 C 225.378 224.135,225.262 224.027,225.236 224.611 M296.124 227.040 C 295.204 228.457,294.621 229.511,294.830 229.382 C 295.299 229.092,298.093 224.760,297.922 224.588 C 297.853 224.520,297.044 225.623,296.124 227.040 M251.132 225.900 C 250.289 227.778,248.851 228.196,242.469 228.420 L 236.200 228.640 242.221 228.720 L 248.242 228.800 249.921 227.565 C 250.845 226.886,251.600 226.166,251.600 225.965 C 251.600 225.524,251.318 225.485,251.132 225.900 M267.716 228.241 C 266.804 231.935,266.787 232.196,267.605 230.000 C 268.056 228.790,268.374 227.458,268.312 227.041 C 268.251 226.623,267.982 227.163,267.716 228.241 M29.940 229.660 C 29.085 230.515,28.995 240.358,29.822 242.513 C 30.338 243.858,38.273 244.298,39.520 243.051 C 40.595 241.976,40.527 230.846,39.438 229.642 C 38.283 228.366,31.221 228.379,29.940 229.660 M200.629 232.277 C 199.818 234.069,198.772 235.498,197.223 236.931 C 195.993 238.069,195.350 238.736,195.794 238.413 C 198.666 236.322,202.385 231.226,201.922 230.013 C 201.855 229.837,201.273 230.856,200.629 232.277 M292.585 232.500 C 289.939 236.503,289.600 237.062,289.601 237.422 C 289.602 237.773,292.783 233.127,293.646 231.515 C 294.351 230.197,293.720 230.783,292.585 232.500 M326.564 233.200 C 331.153 240.175,331.158 240.168,321.298 240.308 L 313.683 240.417 311.977 238.508 C 310.142 236.456,310.205 236.863,312.101 239.300 L 313.267 240.800 321.824 240.800 L 330.380 240.800 330.132 239.500 C 329.791 237.707,327.189 232.991,325.812 231.667 C 325.430 231.300,325.768 231.990,326.564 233.200 M266.049 233.816 C 264.737 237.443,259.942 240.486,254.400 241.208 C 252.239 241.490,252.231 241.496,253.933 241.548 C 258.590 241.689,265.683 237.312,266.578 233.746 C 266.970 232.182,266.623 232.227,266.049 233.816 M273.166 234.100 C 271.016 237.050,270.355 238.630,270.792 239.780 L 271.180 240.800 278.931 240.800 C 287.121 240.800,288.985 240.376,289.492 238.400 C 289.597 237.994,289.503 238.026,289.203 238.500 C 288.165 240.141,286.777 240.400,279.034 240.400 C 269.489 240.400,269.186 240.007,273.874 233.700 C 274.406 232.985,274.743 232.400,274.623 232.400 C 274.503 232.400,273.847 233.165,273.166 234.100 M210.400 233.867 C 210.400 234.100,210.956 234.990,211.635 235.845 C 213.175 237.785,213.422 238.013,212.883 237.000 C 212.162 235.644,210.400 233.420,210.400 233.867 M214.488 238.613 C 215.086 239.243,215.647 239.677,215.735 239.579 C 215.823 239.480,215.333 238.965,214.647 238.434 L 213.400 237.469 214.488 238.613 M192.400 239.600 C 191.596 239.857,191.557 239.923,192.200 239.932 C 192.640 239.938,193.360 239.789,193.800 239.600 C 194.819 239.162,193.768 239.162,192.400 239.600 M146.349 240.100 C 146.911 240.816,186.971 241.139,190.183 240.453 C 190.833 240.314,181.412 240.254,169.247 240.319 C 151.582 240.414,146.994 240.334,146.464 239.919 C 145.870 239.455,145.858 239.474,146.349 240.100 M217.800 240.371 C 218.680 240.794,219.760 241.141,220.200 241.142 C 220.687 241.143,220.452 240.942,219.600 240.629 C 217.122 239.718,216.153 239.579,217.800 240.371 M221.905 241.483 C 222.402 241.579,223.122 241.575,223.505 241.475 C 223.887 241.375,223.480 241.296,222.600 241.301 C 221.720 241.305,221.407 241.387,221.905 241.483 M31.167 247.835 C 29.490 249.620,30.165 261.018,32.006 262.003 C 33.071 262.573,38.113 262.498,38.929 261.900 C 40.579 260.690,41.042 249.524,39.500 248.120 C 37.996 246.750,32.367 246.558,31.167 247.835 M222.600 256.809 C 220.111 257.487,219.007 257.932,219.726 257.966 C 220.126 257.985,220.846 257.775,221.326 257.500 C 221.965 257.134,226.394 256.942,237.800 256.785 L 253.400 256.570 238.600 256.526 C 230.460 256.502,223.260 256.629,222.600 256.809 M255.200 257.421 C 257.520 258.152,258.178 258.133,256.454 257.384 C 255.714 257.063,254.724 256.812,254.254 256.827 C 253.774 256.842,254.188 257.102,255.200 257.421 M157.127 257.900 C 162.037 257.963,169.957 257.963,174.727 257.900 C 179.497 257.836,175.480 257.784,165.800 257.784 C 156.120 257.784,152.217 257.836,157.127 257.900 M280.200 257.979 C 287.124 258.192,288.782 258.487,289.335 259.605 C 289.448 259.833,289.498 259.791,289.446 259.510 C 289.177 258.049,286.807 257.599,279.800 257.679 L 273.000 257.757 280.200 257.979 M317.100 257.898 C 319.135 257.971,322.465 257.971,324.500 257.898 C 326.535 257.825,324.870 257.766,320.800 257.766 C 316.730 257.766,315.065 257.825,317.100 257.898 M146.080 258.480 C 145.278 259.282,145.423 320.332,146.230 321.400 C 146.992 322.409,182.259 322.830,188.198 321.901 C 190.922 321.474,188.110 321.418,169.266 321.522 C 152.721 321.613,146.992 321.525,146.567 321.173 C 145.601 320.371,145.731 258.997,146.700 258.432 C 147.085 258.208,147.211 258.019,146.980 258.012 C 146.749 258.005,146.344 258.216,146.080 258.480 M185.900 258.282 C 186.395 258.378,187.205 258.378,187.700 258.282 C 188.195 258.187,187.790 258.109,186.800 258.109 C 185.810 258.109,185.405 258.187,185.900 258.282 M259.432 258.529 C 262.511 259.560,264.175 261.033,265.835 264.200 C 266.531 265.528,266.798 265.823,266.629 265.079 C 266.001 262.316,262.006 258.634,259.160 258.194 C 257.899 257.998,257.918 258.023,259.432 258.529 M271.069 258.724 C 270.381 259.484,271.604 262.027,273.992 264.800 L 274.853 265.800 274.085 264.600 C 270.558 259.095,270.541 259.043,272.141 258.397 C 272.727 258.161,272.797 258.043,272.362 258.025 C 272.011 258.011,271.429 258.326,271.069 258.724 M311.864 258.900 C 311.370 259.395,310.204 261.150,309.273 262.800 C 308.342 264.450,307.272 266.250,306.895 266.800 C 306.248 267.743,306.248 267.769,306.894 267.260 C 307.271 266.962,308.422 265.172,309.453 263.282 C 310.484 261.391,311.775 259.429,312.322 258.922 C 312.869 258.415,313.192 258.000,313.040 258.000 C 312.888 258.000,312.359 258.405,311.864 258.900 M328.900 258.557 C 330.021 259.408,330.090 259.260,325.122 266.732 C 324.050 268.345,323.363 269.547,323.595 269.403 C 324.095 269.094,329.007 261.661,329.663 260.221 C 330.143 259.167,329.602 257.986,328.651 258.013 C 328.403 258.020,328.515 258.265,328.900 258.557 M189.600 258.775 C 193.041 259.828,197.600 263.560,197.600 265.324 C 197.600 265.549,197.715 265.618,197.857 265.477 C 199.066 264.267,191.839 258.312,189.310 258.434 C 188.838 258.457,188.935 258.571,189.600 258.775 M214.829 259.578 C 213.043 260.763,210.399 263.736,210.401 264.556 C 210.402 264.800,210.751 264.460,211.177 263.800 C 212.507 261.735,213.337 260.913,215.378 259.637 C 216.466 258.957,217.186 258.401,216.978 258.402 C 216.770 258.403,215.803 258.932,214.829 259.578 M289.600 260.506 C 289.600 260.623,290.318 261.863,291.195 263.260 C 292.072 264.657,293.087 266.340,293.451 267.000 C 294.218 268.392,296.000 270.602,296.000 270.162 C 296.000 269.998,295.691 269.522,295.313 269.104 C 294.586 268.300,293.406 266.431,291.966 263.800 C 291.074 262.170,289.600 260.118,289.600 260.506 M343.457 263.700 C 343.148 264.195,342.787 265.770,342.656 267.200 C 341.981 274.554,341.984 274.386,342.579 271.200 C 342.887 269.550,343.153 267.345,343.170 266.300 C 343.191 264.963,343.437 264.163,344.000 263.600 C 344.440 263.160,344.624 262.800,344.409 262.800 C 344.194 262.800,343.766 263.205,343.457 263.700 M352.475 263.084 C 353.197 263.194,353.679 263.601,353.943 264.324 C 354.160 264.916,354.351 265.163,354.368 264.874 C 354.437 263.729,353.569 262.800,352.486 262.860 L 351.400 262.920 352.475 263.084 M360.380 263.425 C 360.068 263.800,359.726 265.994,359.522 268.925 C 359.335 271.606,359.006 274.778,358.791 275.973 C 358.212 279.189,358.392 280.225,359.004 277.200 C 359.294 275.770,359.644 272.710,359.784 270.400 C 360.148 264.349,360.306 263.614,361.322 263.204 C 361.931 262.959,362.000 262.843,361.549 262.825 C 361.191 262.811,360.665 263.081,360.380 263.425 M369.304 263.087 C 371.246 263.381,371.731 265.015,371.526 270.580 C 371.428 273.231,371.474 274.860,371.627 274.200 C 372.868 268.849,371.617 262.735,369.306 262.860 L 368.200 262.920 369.304 263.087 M275.332 266.800 C 275.678 267.350,276.887 269.367,278.018 271.282 C 279.149 273.197,280.357 274.997,280.702 275.282 C 281.422 275.875,281.277 275.598,279.198 272.400 C 278.554 271.410,277.667 269.970,277.227 269.200 C 276.787 268.430,276.039 267.350,275.564 266.800 L 274.702 265.800 275.332 266.800 M354.540 269.200 C 354.540 271.070,354.609 271.835,354.693 270.900 C 354.777 269.965,354.777 268.435,354.693 267.500 C 354.609 266.565,354.540 267.330,354.540 269.200 M31.058 267.037 L 29.916 267.669 30.058 273.803 C 30.241 281.715,30.429 282.000,35.447 282.000 C 39.887 282.000,40.001 281.834,39.996 275.411 C 39.990 269.668,39.711 267.684,38.845 267.234 C 37.444 266.504,32.256 266.373,31.058 267.037 M209.193 267.900 C 208.769 269.075,208.640 273.601,208.599 288.800 L 208.547 308.200 208.797 289.000 C 208.977 275.204,209.189 269.367,209.553 268.262 C 210.211 266.261,209.898 265.946,209.193 267.900 M267.006 267.200 C 267.538 269.702,268.346 272.121,268.342 271.200 C 268.340 270.650,267.991 269.300,267.566 268.200 C 267.141 267.100,266.890 266.650,267.006 267.200 M198.439 267.800 C 198.424 268.020,198.671 268.920,198.988 269.800 C 199.305 270.680,199.565 271.040,199.564 270.600 C 199.564 269.772,198.485 267.090,198.439 267.800 M304.888 269.900 C 304.467 270.505,303.449 272.215,302.626 273.700 C 300.930 276.762,300.906 276.774,299.229 275.363 C 298.499 274.749,298.093 274.576,298.232 274.939 C 298.508 275.657,300.146 276.802,300.886 276.794 C 301.169 276.791,302.167 275.396,303.105 273.694 C 304.043 271.992,305.100 270.195,305.454 269.700 C 305.808 269.205,305.998 268.800,305.876 268.800 C 305.754 268.800,305.310 269.295,304.888 269.900 M229.511 269.917 C 229.132 270.073,232.552 270.139,237.111 270.064 C 246.392 269.912,248.947 270.254,250.446 271.848 L 251.400 272.864 251.609 289.732 L 251.817 306.600 251.909 290.080 C 252.011 271.649,252.045 271.909,249.318 270.554 C 247.732 269.766,231.176 269.234,229.511 269.917 M322.000 271.681 C 321.450 272.563,319.532 275.560,317.737 278.342 C 315.942 281.124,314.092 284.030,313.626 284.800 L 312.779 286.200 313.689 285.129 C 314.190 284.540,315.121 283.190,315.758 282.129 C 316.848 280.313,320.093 275.251,322.319 271.893 C 322.869 271.064,323.247 270.316,323.159 270.232 C 323.072 270.147,322.550 270.799,322.000 271.681 M226.947 271.109 C 226.002 271.874,225.192 273.263,225.216 274.074 C 225.224 274.363,225.473 274.045,225.769 273.366 C 226.064 272.687,226.801 271.742,227.407 271.266 C 228.012 270.790,228.349 270.404,228.154 270.409 C 227.959 270.414,227.416 270.729,226.947 271.109 M162.480 271.280 C 162.155 271.605,162.000 273.462,162.000 277.018 C 162.000 284.110,161.328 283.649,171.441 283.500 L 179.400 283.382 171.380 283.291 C 165.784 283.228,163.215 283.055,162.880 282.720 C 162.034 281.874,162.228 271.740,163.100 271.232 C 163.485 271.008,163.611 270.819,163.380 270.812 C 163.149 270.805,162.744 271.016,162.480 271.280 M179.200 271.088 C 182.943 271.757,184.353 278.505,181.418 281.700 C 180.661 282.525,180.196 283.200,180.387 283.200 C 180.577 283.200,181.288 282.499,181.966 281.642 C 184.778 278.092,182.858 270.651,179.183 270.854 L 178.200 270.909 179.200 271.088 M296.882 272.373 C 297.380 273.238,297.855 273.878,297.939 273.794 C 298.112 273.621,296.431 270.800,296.155 270.800 C 296.057 270.800,296.384 271.508,296.882 272.373 M199.728 274.000 C 199.728 275.430,199.801 276.015,199.889 275.300 C 199.978 274.585,199.978 273.415,199.889 272.700 C 199.801 271.985,199.728 272.570,199.728 274.000 M341.701 276.600 C 341.705 277.480,341.787 277.793,341.883 277.295 C 341.979 276.798,341.975 276.078,341.875 275.695 C 341.775 275.313,341.696 275.720,341.701 276.600 M370.846 276.244 C 370.821 276.708,370.248 278.121,369.574 279.385 C 368.900 280.648,368.415 281.749,368.497 281.831 C 368.830 282.163,371.257 276.810,371.082 276.132 C 370.920 275.507,370.886 275.523,370.846 276.244 M352.475 279.524 C 350.564 283.962,349.594 284.628,345.231 284.501 C 340.867 284.375,340.437 284.024,341.165 281.184 C 341.452 280.067,341.606 279.072,341.507 278.974 C 341.220 278.687,340.296 282.964,340.460 283.820 C 340.780 285.483,347.803 285.549,350.058 283.909 C 351.263 283.033,354.216 277.617,353.928 276.809 C 353.858 276.610,353.204 277.832,352.475 279.524 M198.418 279.819 C 197.687 282.056,196.926 283.409,195.443 285.112 C 194.347 286.370,193.189 287.711,192.871 288.091 C 192.344 288.720,192.455 288.852,194.098 289.556 C 196.032 290.385,198.395 292.516,199.634 294.549 C 200.054 295.237,200.398 295.605,200.399 295.366 C 200.403 293.970,196.215 289.980,193.670 288.956 C 192.762 288.590,192.798 288.518,195.161 285.939 C 197.440 283.452,199.947 278.425,199.526 277.186 C 199.457 276.981,198.958 278.166,198.418 279.819 M282.261 277.800 C 282.709 278.460,283.522 279.720,284.068 280.600 C 285.798 283.387,287.303 285.600,287.468 285.600 C 287.644 285.600,287.339 285.078,285.598 282.400 C 284.954 281.410,284.074 279.958,283.643 279.173 C 283.211 278.389,282.541 277.489,282.153 277.173 C 281.576 276.704,281.595 276.818,282.261 277.800 M357.538 282.800 C 357.227 284.588,357.132 284.522,360.520 284.861 C 364.308 285.240,365.643 284.974,367.259 283.520 L 368.600 282.314 367.000 283.457 C 364.107 285.524,358.215 284.884,357.914 282.471 C 357.793 281.494,357.760 281.523,357.538 282.800 M30.971 287.402 C 30.050 288.610,30.000 288.962,30.000 294.284 C 30.000 301.772,30.154 302.000,35.206 302.000 C 40.033 302.000,40.003 302.049,39.991 294.211 C 39.980 286.574,39.970 286.558,35.271 286.307 L 31.942 286.129 30.971 287.402 M287.832 286.400 C 287.991 286.730,288.346 287.270,288.620 287.600 C 288.893 287.930,289.205 288.560,289.312 289.000 L 289.507 289.800 289.552 289.000 C 289.576 288.560,289.134 287.660,288.569 287.000 C 288.004 286.340,287.673 286.070,287.832 286.400 M311.462 287.931 C 310.511 288.983,310.621 290.922,311.684 291.838 L 312.569 292.600 311.884 291.514 C 311.021 290.143,311.013 288.870,311.862 287.931 C 312.226 287.529,312.434 287.200,312.324 287.200 C 312.214 287.200,311.826 287.529,311.462 287.931 M287.578 293.428 C 286.600 294.861,285.066 297.275,284.169 298.792 C 283.272 300.308,281.903 302.326,281.128 303.275 C 280.353 304.224,279.406 305.605,279.025 306.345 C 278.644 307.085,277.538 308.852,276.566 310.271 C 275.595 311.690,274.800 312.954,274.800 313.080 C 274.800 313.492,276.971 310.503,278.200 308.399 C 278.860 307.269,280.238 305.201,281.263 303.803 C 282.287 302.406,283.783 300.124,284.585 298.731 C 285.388 297.339,286.852 295.052,287.839 293.650 C 288.826 292.247,289.571 291.037,289.494 290.961 C 289.418 290.884,288.555 291.995,287.578 293.428 M313.774 295.000 C 315.167 297.052,315.452 297.295,314.677 295.771 C 314.334 295.095,313.749 294.290,313.378 293.982 C 313.007 293.674,313.185 294.132,313.774 295.000 M163.061 296.597 C 162.697 296.960,162.400 297.464,162.400 297.718 C 162.400 297.971,162.690 297.763,163.045 297.257 L 163.690 296.336 172.745 296.468 C 182.194 296.606,184.164 297.001,184.940 298.915 C 185.092 299.288,185.144 299.286,185.168 298.906 C 185.186 298.634,184.449 297.914,183.530 297.306 L 181.861 296.200 172.791 296.068 C 164.780 295.951,163.644 296.013,163.061 296.597 M201.130 297.582 C 201.498 298.451,201.856 299.004,201.924 298.809 C 202.050 298.449,200.913 296.000,200.619 296.000 C 200.531 296.000,200.761 296.712,201.130 297.582 M316.115 298.719 C 316.602 299.570,317.771 301.331,318.714 302.633 C 319.656 303.935,321.051 305.984,321.814 307.187 C 322.576 308.389,323.197 309.199,323.193 308.987 C 323.184 308.535,321.543 305.993,319.070 302.600 C 318.107 301.280,317.024 299.626,316.663 298.925 C 316.301 298.224,315.831 297.543,315.618 297.411 C 315.405 297.279,315.628 297.868,316.115 298.719 M162.076 302.811 C 161.963 309.664,161.256 309.221,172.123 309.108 L 181.000 309.016 172.212 308.900 C 161.838 308.763,162.659 309.249,162.376 303.082 L 162.151 298.200 162.076 302.811 M185.279 302.526 C 185.213 305.131,184.862 306.728,184.176 307.537 C 184.112 307.612,183.371 307.919,182.530 308.219 C 181.688 308.519,181.324 308.773,181.720 308.782 C 184.394 308.848,185.699 306.635,185.498 302.371 L 185.359 299.400 185.279 302.526 M202.155 305.000 C 202.156 307.860,202.220 308.978,202.297 307.483 C 202.374 305.989,202.374 303.649,202.296 302.283 C 202.218 300.918,202.155 302.140,202.155 305.000 M299.547 303.404 C 298.969 303.718,298.383 304.296,298.246 304.688 C 298.031 305.306,298.064 305.321,298.499 304.795 C 299.781 303.247,301.144 303.132,301.857 304.511 C 302.224 305.220,302.832 306.250,303.208 306.800 C 305.336 309.910,307.121 312.664,308.030 314.237 C 308.596 315.218,309.295 316.240,309.583 316.510 C 310.224 317.110,308.127 313.314,307.203 312.200 C 306.532 311.391,305.435 309.698,302.699 305.244 C 301.057 302.571,301.068 302.578,299.547 303.404 M296.186 308.118 C 293.838 311.787,293.764 311.925,294.535 311.200 C 295.253 310.523,298.079 305.946,297.893 305.760 C 297.827 305.694,297.059 306.755,296.186 308.118 M30.935 306.453 C 28.952 307.457,28.921 319.534,30.898 320.769 C 32.555 321.803,38.080 321.829,39.000 320.806 C 39.998 319.696,40.238 307.683,39.280 306.722 C 38.616 306.054,32.134 305.846,30.935 306.453 M225.606 307.030 C 225.599 307.546,227.058 308.924,228.274 309.550 C 228.849 309.846,232.407 310.000,238.695 310.000 L 248.242 310.000 249.921 308.765 C 250.845 308.086,251.600 307.359,251.600 307.149 C 251.600 306.939,251.105 307.239,250.500 307.815 C 248.733 309.497,248.024 309.600,238.205 309.600 L 228.861 309.600 227.531 308.506 C 226.799 307.905,226.068 307.230,225.906 307.006 C 225.711 306.737,225.610 306.745,225.606 307.030 M267.716 309.441 C 266.804 313.135,266.787 313.396,267.605 311.200 C 268.056 309.990,268.374 308.658,268.312 308.241 C 268.251 307.823,267.982 308.363,267.716 309.441 M208.876 309.400 C 208.868 310.060,209.119 311.230,209.434 312.000 C 209.956 313.275,209.984 313.293,209.747 312.200 C 209.604 311.540,209.353 310.370,209.190 309.600 C 208.900 308.239,208.892 308.233,208.876 309.400 M200.629 313.477 C 199.780 315.351,198.790 316.673,197.029 318.280 C 195.465 319.708,195.167 320.089,196.191 319.349 C 198.808 317.459,202.374 312.397,201.922 311.213 C 201.855 311.037,201.273 312.056,200.629 313.477 M292.722 313.500 C 290.718 316.548,289.600 318.390,289.600 318.645 C 289.600 319.019,290.900 317.256,291.872 315.565 C 292.325 314.776,293.010 313.651,293.394 313.065 C 293.778 312.479,294.006 312.000,293.900 312.000 C 293.795 312.000,293.265 312.675,292.722 313.500 M325.997 313.600 C 327.889 316.386,328.288 317.022,328.971 318.343 C 329.380 319.135,329.566 320.079,329.425 320.643 L 329.185 321.600 321.260 321.600 L 313.334 321.600 311.667 319.350 C 310.750 318.112,310.000 317.240,310.000 317.413 C 310.000 317.585,310.724 318.665,311.609 319.812 C 313.539 322.313,313.849 322.391,321.800 322.391 C 331.088 322.391,331.748 321.999,329.182 318.000 C 328.547 317.010,327.674 315.558,327.243 314.773 C 326.811 313.989,326.141 313.089,325.753 312.773 C 325.267 312.379,325.343 312.636,325.997 313.600 M266.201 314.795 C 266.057 315.452,265.144 316.808,264.172 317.808 C 263.200 318.807,262.746 319.443,263.164 319.219 C 264.722 318.386,267.712 313.600,266.675 313.600 C 266.559 313.600,266.345 314.138,266.201 314.795 M210.412 315.045 C 210.402 315.413,212.311 318.092,213.089 318.800 C 213.537 319.209,212.385 317.242,211.877 316.731 C 211.586 316.439,211.140 315.840,210.886 315.400 C 210.632 314.960,210.419 314.800,210.412 315.045 M271.388 318.185 C 270.442 319.799,270.393 320.077,270.876 321.085 L 271.410 322.200 278.833 322.309 L 286.256 322.417 287.928 321.206 C 288.848 320.540,289.595 319.771,289.588 319.497 C 289.581 319.224,289.392 319.315,289.168 319.700 C 288.218 321.331,286.783 321.600,279.034 321.600 C 270.266 321.600,269.890 321.423,271.791 318.179 C 272.365 317.200,272.744 316.400,272.634 316.400 C 272.524 316.400,271.963 317.203,271.388 318.185 M214.400 319.701 C 215.811 321.224,220.573 322.816,223.492 322.741 L 225.800 322.683 223.000 322.390 C 219.712 322.047,215.858 320.751,214.419 319.505 L 213.400 318.623 214.400 319.701 M257.855 321.657 C 257.446 321.895,255.826 322.239,254.255 322.421 L 251.400 322.752 254.200 322.619 C 256.528 322.509,261.091 321.239,259.200 321.228 C 258.870 321.226,258.265 321.419,257.855 321.657 M34.400 325.933 C 30.603 327.085,30.309 328.093,32.510 332.423 C 37.165 341.581,39.925 343.115,43.733 338.658 C 46.065 335.928,46.100 335.043,43.957 332.981 C 43.053 332.112,41.960 330.590,41.528 329.600 C 39.603 325.187,38.584 324.663,34.400 325.933 M49.729 337.471 C 48.408 337.739,47.078 340.392,46.523 343.865 C 46.175 346.040,49.752 347.279,58.094 347.871 C 62.808 348.206,63.200 347.877,63.200 343.592 C 63.200 338.947,62.858 338.645,56.919 338.043 C 54.323 337.780,51.840 337.504,51.400 337.430 C 50.960 337.355,50.208 337.374,49.729 337.471 M68.684 339.908 C 68.158 340.488,68.000 341.406,68.000 343.870 C 68.000 348.407,67.960 348.382,76.022 348.886 L 82.491 349.291 83.501 348.281 C 85.266 346.516,85.110 341.000,83.268 340.049 C 81.662 339.219,69.414 339.101,68.684 339.908 M89.949 340.261 C 89.615 340.664,89.346 342.192,89.263 344.171 C 89.033 349.614,89.193 349.686,99.743 348.852 C 106.154 348.346,106.400 348.180,106.400 344.364 C 106.400 342.872,106.224 341.190,106.010 340.626 L 105.620 339.600 98.059 339.600 C 91.516 339.600,90.424 339.689,89.949 340.261 " stroke="none" fill="#e317c4" fill-rule="evenodd"></path><path id="path2" d="M22.000 0.600 C 22.000 1.003,21.597 1.200,20.774 1.200 C 19.272 1.200,18.000 1.836,18.000 2.588 C 18.000 2.900,17.515 3.203,16.900 3.273 C 16.131 3.362,15.763 3.658,15.678 4.258 C 15.581 4.938,15.187 5.171,13.779 5.382 C 12.338 5.598,11.957 5.832,11.758 6.624 C 11.608 7.224,11.225 7.600,10.764 7.600 C 10.306 7.600,9.921 7.975,9.773 8.565 C 9.629 9.140,9.140 9.629,8.565 9.773 C 7.975 9.921,7.600 10.306,7.600 10.764 C 7.600 11.225,7.224 11.608,6.624 11.758 C 5.834 11.957,5.598 12.338,5.384 13.768 C 5.171 15.189,4.932 15.581,4.160 15.774 C 3.469 15.948,3.200 16.294,3.200 17.008 C 3.200 17.612,2.971 18.000,2.614 18.000 C 1.839 18.000,1.200 19.253,1.200 20.774 C 1.200 21.597,1.003 22.000,0.600 22.000 C 0.068 22.000,0.000 42.044,0.000 200.000 C 0.000 357.956,0.068 378.000,0.600 378.000 C 1.003 378.000,1.200 378.403,1.200 379.226 C 1.200 380.728,1.836 382.000,2.588 382.000 C 2.900 382.000,3.203 382.485,3.273 383.100 C 3.362 383.869,3.658 384.237,4.258 384.322 C 4.938 384.419,5.171 384.813,5.382 386.221 C 5.598 387.662,5.832 388.043,6.624 388.242 C 7.224 388.392,7.600 388.775,7.600 389.236 C 7.600 389.694,7.975 390.079,8.565 390.227 C 9.140 390.371,9.629 390.860,9.773 391.435 C 9.921 392.025,10.306 392.400,10.764 392.400 C 11.225 392.400,11.608 392.776,11.758 393.376 C 11.957 394.166,12.338 394.402,13.768 394.616 C 15.189 394.829,15.581 395.068,15.774 395.840 C 15.948 396.531,16.294 396.800,17.008 396.800 C 17.612 396.800,18.000 397.029,18.000 397.386 C 18.000 398.161,19.253 398.800,20.774 398.800 C 21.597 398.800,22.000 398.997,22.000 399.400 C 22.000 399.932,42.044 400.000,200.000 400.000 C 357.956 400.000,378.000 399.932,378.000 399.400 C 378.000 398.997,378.403 398.800,379.226 398.800 C 380.728 398.800,382.000 398.164,382.000 397.412 C 382.000 397.100,382.485 396.797,383.100 396.727 C 383.869 396.638,384.237 396.342,384.322 395.742 C 384.419 395.062,384.813 394.829,386.221 394.618 C 387.662 394.402,388.043 394.168,388.242 393.376 C 388.392 392.776,388.775 392.400,389.236 392.400 C 389.694 392.400,390.079 392.025,390.227 391.435 C 390.371 390.860,390.860 390.371,391.435 390.227 C 392.025 390.079,392.400 389.694,392.400 389.236 C 392.400 388.775,392.776 388.392,393.376 388.242 C 394.166 388.043,394.402 387.662,394.616 386.232 C 394.829 384.811,395.068 384.419,395.840 384.226 C 396.531 384.052,396.800 383.706,396.800 382.992 C 396.800 382.388,397.029 382.000,397.386 382.000 C 398.161 382.000,398.800 380.747,398.800 379.226 C 398.800 378.403,398.997 378.000,399.400 378.000 C 399.932 378.000,400.000 357.956,400.000 200.000 C 400.000 42.044,399.932 22.000,399.400 22.000 C 398.997 22.000,398.800 21.597,398.800 20.774 C 398.800 19.272,398.164 18.000,397.412 18.000 C 397.100 18.000,396.797 17.515,396.727 16.900 C 396.638 16.131,396.342 15.763,395.742 15.678 C 395.062 15.581,394.829 15.187,394.618 13.779 C 394.402 12.338,394.168 11.957,393.376 11.758 C 392.776 11.608,392.400 11.225,392.400 10.764 C 392.400 10.306,392.025 9.921,391.435 9.773 C 390.860 9.629,390.371 9.140,390.227 8.565 C 390.079 7.975,389.694 7.600,389.236 7.600 C 388.775 7.600,388.392 7.224,388.242 6.624 C 388.043 5.834,387.662 5.598,386.232 5.384 C 384.811 5.171,384.419 4.932,384.226 4.160 C 384.052 3.469,383.706 3.200,382.992 3.200 C 382.388 3.200,382.000 2.971,382.000 2.614 C 382.000 1.839,380.747 1.200,379.226 1.200 C 378.403 1.200,378.000 1.003,378.000 0.600 C 378.000 0.068,357.956 0.000,200.000 0.000 C 42.044 0.000,22.000 0.068,22.000 0.600 M168.800 43.379 C 174.967 44.206,179.913 46.465,184.080 50.357 C 187.599 53.643,189.789 56.584,191.865 60.810 C 198.012 73.322,198.097 76.017,192.378 77.234 C 190.740 77.582,188.770 78.067,188.000 78.312 C 187.230 78.556,184.688 79.032,182.351 79.369 C 180.013 79.706,177.584 80.178,176.952 80.418 C 173.435 81.755,149.759 81.753,146.241 80.416 C 145.622 80.180,143.380 79.714,141.258 79.380 C 139.136 79.045,136.320 78.439,135.000 78.033 C 133.680 77.627,131.880 77.095,131.000 76.850 C 129.981 76.567,129.094 75.964,128.557 75.189 L 127.715 73.973 128.636 70.287 C 129.143 68.259,129.817 66.060,130.134 65.400 C 130.451 64.740,131.398 62.760,132.238 61.000 C 135.871 53.388,143.997 45.600,148.305 45.600 C 148.595 45.600,149.567 45.225,150.465 44.767 C 151.624 44.175,153.621 43.783,157.349 43.413 C 164.248 42.729,163.957 42.729,168.800 43.379 M85.500 44.103 C 86.319 44.750,86.164 50.517,85.300 51.543 C 84.235 52.807,72.814 52.991,71.586 51.764 C 70.540 50.718,69.956 44.726,70.845 44.165 C 72.295 43.249,84.355 43.198,85.500 44.103 M105.252 44.764 C 106.508 46.316,106.191 51.582,104.800 52.284 C 102.963 53.210,92.970 52.976,91.562 51.973 C 89.958 50.831,89.772 45.293,91.300 44.204 C 92.929 43.042,104.226 43.496,105.252 44.764 M65.626 48.261 C 66.052 49.254,66.400 50.866,66.400 51.844 L 66.400 53.623 62.564 55.511 C 60.454 56.550,57.979 57.802,57.064 58.293 C 54.482 59.678,51.481 58.033,49.464 54.125 C 48.721 52.686,48.264 53.222,53.117 49.844 C 54.281 49.034,56.531 47.899,58.117 47.322 C 63.704 45.290,64.390 45.376,65.626 48.261 M47.621 59.045 C 50.828 61.636,51.113 62.605,49.251 64.581 C 48.619 65.251,47.493 66.700,46.749 67.800 C 42.956 73.410,42.663 73.536,37.600 71.739 C 34.033 70.473,33.593 70.124,33.862 68.770 C 34.236 66.888,41.606 57.899,43.355 57.192 C 44.667 56.662,44.678 56.667,47.621 59.045 M37.829 76.168 C 41.532 77.512,41.398 77.213,40.835 82.882 C 40.052 90.751,40.379 90.351,34.591 90.500 C 29.263 90.638,29.026 90.354,29.296 84.157 C 29.673 75.507,31.444 73.850,37.829 76.168 M132.800 92.439 C 134.450 93.736,137.330 95.528,139.200 96.419 C 141.070 97.311,143.320 98.390,144.200 98.817 C 145.903 99.642,149.687 100.998,152.000 101.609 C 156.688 102.850,169.830 102.363,173.224 100.823 C 174.201 100.380,175.357 100.014,175.794 100.009 C 176.231 100.004,177.491 99.563,178.594 99.028 C 179.697 98.494,181.950 97.458,183.600 96.726 C 185.250 95.994,188.439 94.160,190.687 92.651 C 197.119 88.332,197.528 88.826,195.778 98.800 C 195.193 102.132,193.730 106.614,192.442 109.016 C 191.979 109.881,191.600 110.722,191.600 110.886 C 191.600 112.354,184.776 119.959,181.800 121.808 C 179.686 123.122,176.235 124.771,175.058 125.030 C 174.430 125.169,173.130 125.630,172.168 126.056 C 168.045 127.879,154.112 127.886,150.516 126.065 C 149.682 125.643,148.417 125.172,147.705 125.018 C 146.992 124.864,146.307 124.573,146.181 124.370 C 146.056 124.167,144.944 123.524,143.709 122.940 C 139.384 120.894,132.807 113.245,131.108 108.287 C 130.866 107.579,130.437 106.640,130.155 106.200 C 129.525 105.215,127.773 97.171,127.389 93.497 C 126.899 88.816,127.936 88.613,132.800 92.439 M39.571 95.454 C 40.886 97.126,40.827 107.459,39.495 108.710 C 38.365 109.772,31.739 109.575,30.364 108.439 C 29.531 107.750,28.778 99.338,29.346 97.071 C 29.973 94.575,37.894 93.322,39.571 95.454 M152.542 113.007 C 152.159 114.005,154.017 119.377,155.132 120.492 C 155.888 121.248,163.428 121.405,164.524 120.686 C 165.910 119.779,168.941 113.652,168.354 112.945 C 167.650 112.097,152.869 112.154,152.542 113.007 M39.611 114.500 C 41.066 116.055,40.652 126.083,39.078 127.436 C 37.395 128.882,32.034 128.871,30.582 127.418 C 29.387 126.224,29.035 115.767,30.157 114.835 C 31.826 113.451,38.411 113.217,39.611 114.500 M200.004 122.500 C 201.434 124.844,200.621 126.817,194.197 136.600 C 190.942 141.558,192.309 141.124,178.931 141.445 L 167.287 141.724 166.244 140.680 C 163.827 138.264,165.073 136.113,169.209 135.560 C 176.316 134.610,184.895 130.477,191.600 124.774 C 196.264 120.807,198.589 120.178,200.004 122.500 M128.635 123.502 C 131.130 125.916,133.756 128.002,135.800 129.192 C 141.076 132.265,142.495 132.956,145.695 134.010 C 147.643 134.652,150.141 135.297,151.245 135.444 C 154.391 135.861,155.552 138.488,153.636 140.856 L 152.872 141.800 141.736 141.926 C 127.347 142.088,128.400 142.441,125.545 136.496 C 120.021 124.989,119.963 124.627,123.329 122.609 C 125.664 121.210,126.393 121.332,128.635 123.502 M213.128 129.097 C 216.039 131.453,217.187 138.449,215.018 140.618 C 213.920 141.716,204.147 142.135,202.329 141.162 C 200.935 140.416,202.864 134.570,206.364 128.929 C 207.627 126.893,210.494 126.965,213.128 129.097 M113.245 128.424 C 114.040 128.850,116.800 134.154,116.800 135.258 C 116.800 135.582,117.067 136.196,117.394 136.624 C 118.377 137.910,118.924 140.368,118.375 141.031 C 117.504 142.080,105.436 141.836,104.347 140.747 C 102.305 138.705,104.433 132.229,107.912 129.893 C 110.930 127.867,111.772 127.636,113.245 128.424 M39.511 133.423 C 41.142 134.565,40.748 146.153,39.040 147.294 C 38.431 147.700,31.122 147.665,30.471 147.252 C 28.368 145.919,28.776 134.322,30.960 133.371 C 32.739 132.597,38.380 132.630,39.511 133.423 M39.728 152.881 C 40.844 154.226,40.583 164.696,39.400 166.001 C 38.465 167.033,30.930 167.089,29.910 166.071 C 29.365 165.527,28.927 155.144,29.374 153.361 C 29.868 151.394,38.175 151.008,39.728 152.881 M39.467 171.696 C 40.795 173.023,40.695 183.648,39.343 185.000 C 38.475 185.868,31.335 185.850,30.089 184.977 C 29.062 184.258,28.727 174.676,29.658 172.633 C 30.522 170.737,37.812 170.040,39.467 171.696 M254.000 175.592 C 254.770 175.798,256.564 176.256,257.988 176.611 C 263.211 177.914,265.509 180.246,267.331 186.090 L 268.400 189.517 268.400 208.573 L 268.400 227.629 267.300 231.266 C 265.767 236.335,263.268 239.035,258.678 240.584 L 255.555 241.638 237.678 241.511 L 219.800 241.384 217.430 240.341 C 213.657 238.680,211.095 235.866,209.726 231.881 L 208.600 228.600 208.605 208.400 L 208.611 188.200 209.678 185.311 C 212.853 176.715,217.008 175.257,238.400 175.234 C 246.210 175.226,253.230 175.387,254.000 175.592 M192.400 178.339 C 200.781 182.657,202.427 196.446,195.500 204.308 C 192.759 207.420,192.781 207.290,194.834 208.215 C 199.711 210.415,202.200 215.681,202.200 223.800 L 202.200 230.200 200.937 232.615 C 200.243 233.943,198.877 235.764,197.903 236.663 C 193.443 240.773,193.246 240.800,167.597 240.800 L 146.845 240.800 146.223 239.911 C 145.386 238.717,145.263 178.097,146.096 177.264 C 146.481 176.879,151.412 176.794,168.196 176.884 L 189.800 177.000 192.400 178.339 M288.398 177.199 C 288.807 177.418,289.910 178.993,290.848 180.699 C 291.785 182.404,293.301 184.880,294.215 186.200 C 295.130 187.520,295.950 188.780,296.039 189.000 C 297.463 192.528,300.572 195.955,301.290 194.788 C 301.489 194.465,302.456 192.850,303.440 191.200 C 304.424 189.550,305.752 187.390,306.392 186.400 C 307.032 185.410,308.322 183.250,309.260 181.600 C 312.150 176.516,311.472 176.800,320.705 176.800 C 331.729 176.800,331.527 176.546,326.505 184.069 C 323.669 188.317,322.591 190.034,321.232 192.473 C 320.781 193.283,320.226 194.060,320.000 194.200 C 319.774 194.340,319.225 195.117,318.781 195.927 C 318.336 196.737,317.445 198.210,316.800 199.200 C 316.155 200.190,315.258 201.630,314.807 202.400 C 314.355 203.170,313.371 204.610,312.620 205.600 C 310.727 208.094,310.967 209.884,313.615 213.000 C 313.989 213.440,315.019 215.017,315.904 216.504 C 316.790 217.991,318.257 220.241,319.165 221.504 C 320.073 222.767,321.382 224.700,322.074 225.800 C 322.765 226.900,323.977 228.763,324.766 229.940 C 328.948 236.179,329.783 237.666,330.132 239.500 L 330.380 240.800 321.810 240.800 L 313.241 240.800 312.120 239.338 C 310.902 237.749,309.732 235.898,308.367 233.400 C 307.886 232.520,307.370 231.710,307.220 231.600 C 306.929 231.386,303.307 225.799,301.400 222.622 C 300.874 221.745,298.586 222.783,298.172 224.087 C 298.024 224.554,297.250 225.916,296.451 227.113 C 295.653 228.309,294.656 229.854,294.236 230.544 C 293.816 231.235,292.686 233.017,291.725 234.505 C 290.763 235.993,289.806 237.658,289.598 238.205 C 288.741 240.459,287.347 240.797,278.890 240.799 L 271.180 240.800 270.792 239.780 C 270.338 238.586,271.101 236.839,273.377 233.857 C 274.160 232.832,274.800 231.874,274.800 231.728 C 274.800 231.582,275.109 231.122,275.487 230.704 C 276.216 229.898,277.400 228.022,278.833 225.400 C 279.314 224.520,280.371 222.990,281.183 222.000 C 281.994 221.010,283.327 219.030,284.144 217.600 C 284.962 216.170,286.523 213.740,287.614 212.200 C 290.075 208.724,290.056 208.590,286.265 202.788 C 280.789 194.408,280.189 193.475,278.191 190.247 C 277.086 188.461,275.646 186.206,274.991 185.235 C 269.034 176.405,268.814 176.800,279.688 176.800 C 284.215 176.800,287.974 176.972,288.398 177.199 M117.782 181.737 C 118.491 182.256,118.488 182.315,117.685 183.437 C 116.662 184.868,115.709 190.366,115.337 196.984 C 114.980 203.336,114.751 203.600,109.592 203.600 C 103.661 203.600,102.822 202.792,102.809 197.067 C 102.794 190.583,104.623 185.109,107.783 182.180 C 109.044 181.012,116.347 180.688,117.782 181.737 M134.588 181.741 C 135.305 182.266,135.303 182.337,134.494 184.041 C 133.709 185.697,132.000 196.759,132.000 200.188 C 132.000 204.485,121.956 205.362,120.523 201.190 C 118.894 196.451,120.713 186.950,124.040 182.809 L 125.334 181.200 129.590 181.200 C 132.538 181.200,134.075 181.366,134.588 181.741 M228.158 189.613 C 225.386 190.986,225.414 190.808,225.282 207.891 C 225.113 229.837,224.450 228.907,240.000 228.530 C 248.816 228.317,248.656 228.344,250.300 226.789 L 251.600 225.559 251.600 208.810 L 251.600 192.061 250.574 190.842 C 249.077 189.063,247.512 188.805,238.200 188.803 C 230.560 188.801,229.652 188.874,228.158 189.613 M162.900 190.051 C 162.142 190.822,162.202 200.938,162.968 201.574 C 163.376 201.912,165.918 202.011,171.956 201.923 L 180.376 201.800 181.572 200.400 C 183.509 198.132,183.404 193.143,181.378 191.178 L 179.957 189.800 171.678 189.671 C 165.366 189.573,163.281 189.663,162.900 190.051 M37.567 190.653 C 39.597 191.059,40.000 192.340,40.000 198.394 C 40.000 205.459,39.906 205.602,35.254 205.595 C 29.304 205.585,29.200 205.458,29.200 198.200 C 29.200 190.879,30.923 189.325,37.567 190.653 M39.377 210.489 C 40.295 211.799,40.290 223.253,39.371 224.171 C 38.516 225.027,31.330 225.075,30.176 224.233 C 28.933 223.325,28.760 211.640,29.972 210.428 C 31.262 209.138,38.464 209.185,39.377 210.489 M162.790 216.226 C 162.576 216.790,162.400 219.282,162.400 221.764 C 162.400 228.092,161.679 227.702,173.068 227.520 C 185.040 227.329,185.200 227.245,185.200 221.181 C 185.200 215.667,184.169 215.200,172.003 215.200 L 163.180 215.200 162.790 216.226 M39.438 229.642 C 40.527 230.846,40.595 241.976,39.520 243.051 C 38.273 244.298,30.338 243.858,29.822 242.513 C 28.995 240.358,29.085 230.515,29.940 229.660 C 31.221 228.379,38.283 228.366,39.438 229.642 M39.500 248.120 C 41.042 249.524,40.579 260.690,38.929 261.900 C 38.113 262.498,33.071 262.573,32.006 262.003 C 30.165 261.018,29.490 249.620,31.167 247.835 C 32.367 246.558,37.996 246.750,39.500 248.120 M254.200 256.793 C 262.856 258.728,265.273 260.655,267.325 267.259 L 268.400 270.717 268.400 289.773 L 268.400 308.829 267.300 312.477 C 265.919 317.055,263.569 319.791,259.537 321.515 L 257.000 322.600 238.600 322.600 C 220.227 322.600,220.196 322.599,217.725 321.656 C 213.899 320.195,211.161 317.258,209.723 313.071 L 208.600 309.800 208.605 289.600 L 208.611 269.400 209.676 266.515 C 211.469 261.662,214.177 259.131,219.000 257.802 C 220.320 257.438,221.940 256.992,222.600 256.811 C 224.237 256.362,252.203 256.346,254.200 256.793 M185.872 257.994 C 193.297 258.664,196.573 261.143,198.834 267.800 C 201.039 274.292,199.679 281.008,195.161 285.939 L 192.739 288.582 194.368 289.274 C 196.529 290.192,199.265 293.066,200.885 296.122 L 202.200 298.600 202.200 305.000 L 202.200 311.400 200.911 313.800 C 198.183 318.881,195.705 320.592,189.547 321.646 C 182.587 322.837,147.163 322.636,146.230 321.400 C 145.703 320.703,145.624 316.635,145.613 289.749 C 145.599 256.747,145.504 258.278,147.600 257.893 C 149.503 257.543,181.817 257.628,185.872 257.994 M287.796 258.173 C 288.649 258.529,289.402 259.246,289.791 260.073 C 290.134 260.803,291.033 262.390,291.788 263.600 C 292.542 264.810,293.526 266.463,293.974 267.273 C 294.422 268.083,294.982 268.865,295.219 269.012 C 295.456 269.158,295.820 269.665,296.028 270.139 C 297.816 274.206,300.508 277.214,301.273 276.000 C 301.481 275.670,302.456 274.050,303.440 272.400 C 304.424 270.750,305.750 268.590,306.388 267.600 C 307.025 266.610,308.414 264.287,309.473 262.437 C 312.285 257.529,312.227 257.553,321.287 257.688 C 331.685 257.844,331.573 257.681,326.505 265.264 C 325.017 267.490,323.624 269.601,323.410 269.955 C 321.720 272.749,321.042 273.831,318.994 277.000 C 317.715 278.980,316.277 281.230,315.798 282.000 C 314.477 284.126,313.742 285.237,312.413 287.114 C 310.718 289.510,310.964 290.837,313.776 294.461 C 314.229 295.045,315.140 296.452,315.800 297.589 C 316.460 298.726,317.854 300.820,318.897 302.243 C 319.941 303.665,321.078 305.318,321.425 305.915 C 322.745 308.188,323.841 309.928,325.000 311.588 C 332.663 322.565,332.627 322.638,319.806 322.343 L 313.567 322.199 312.199 320.599 C 311.447 319.720,310.543 318.460,310.189 317.800 C 309.030 315.634,306.183 311.148,303.208 306.800 C 302.832 306.250,302.229 305.230,301.868 304.532 C 301.086 303.020,299.272 303.346,298.326 305.170 C 297.429 306.899,295.303 310.394,294.738 311.069 C 293.895 312.077,290.454 317.659,289.790 319.097 C 288.438 322.027,287.049 322.432,278.771 322.309 L 271.410 322.200 270.873 321.078 C 270.331 319.946,272.460 315.444,274.233 313.973 C 274.545 313.714,274.800 313.355,274.800 313.176 C 274.800 312.997,275.595 311.690,276.566 310.271 C 277.538 308.852,278.643 307.085,279.022 306.345 C 279.401 305.605,280.374 304.190,281.184 303.200 C 281.994 302.210,283.327 300.230,284.144 298.800 C 284.962 297.370,286.523 294.940,287.614 293.400 C 290.008 290.019,289.982 289.607,287.093 285.248 C 285.982 283.572,284.679 281.570,284.197 280.800 C 283.716 280.030,282.619 278.347,281.761 277.059 C 280.902 275.772,279.296 273.252,278.191 271.459 C 277.086 269.667,275.646 267.411,274.991 266.447 C 269.919 258.977,269.804 258.569,272.600 257.888 C 274.636 257.392,286.457 257.613,287.796 258.173 M354.020 263.636 C 356.308 267.912,353.699 281.263,350.058 283.909 C 345.842 286.974,339.390 284.998,340.797 281.072 C 341.217 279.899,342.078 273.474,342.656 267.200 C 343.052 262.889,343.177 262.800,348.795 262.800 C 353.232 262.800,353.604 262.860,354.020 263.636 M371.204 264.100 C 374.615 269.693,369.499 284.686,364.105 284.910 C 358.182 285.155,357.105 284.771,357.616 282.590 C 358.371 279.365,359.214 273.272,359.534 268.723 C 359.964 262.609,359.767 262.800,365.655 262.800 L 370.412 262.800 371.204 264.100 M38.845 267.234 C 39.711 267.684,39.990 269.668,39.996 275.411 C 40.001 281.834,39.887 282.000,35.447 282.000 C 30.429 282.000,30.241 281.715,30.058 273.803 L 29.916 267.669 31.058 267.037 C 32.256 266.373,37.444 266.504,38.845 267.234 M229.057 270.411 C 225.345 271.524,225.200 272.249,225.202 289.687 C 225.205 306.153,225.289 306.849,227.474 308.500 L 228.929 309.600 238.238 309.600 C 248.024 309.600,248.734 309.497,250.500 307.815 L 251.600 306.768 251.600 290.015 L 251.600 273.261 250.606 272.080 C 249.984 271.340,248.943 270.730,247.828 270.449 C 245.748 269.925,230.780 269.895,229.057 270.411 M163.100 271.213 C 162.228 271.745,162.034 281.874,162.880 282.720 C 163.223 283.063,165.747 283.200,171.700 283.200 L 180.041 283.200 181.418 281.700 C 183.539 279.391,183.518 274.453,181.378 272.378 L 179.957 271.000 171.878 270.893 C 166.667 270.824,163.552 270.937,163.100 271.213 M39.291 287.343 C 40.267 288.553,40.337 299.741,39.377 301.111 C 38.356 302.569,32.009 302.446,30.829 300.946 C 29.477 299.228,29.582 289.223,30.971 287.402 L 31.942 286.129 35.271 286.307 C 38.067 286.457,38.711 286.622,39.291 287.343 M163.045 297.257 C 162.210 298.450,162.107 307.046,162.915 308.151 C 163.385 308.795,164.228 308.843,172.815 308.722 C 184.992 308.551,185.200 308.448,185.200 302.614 C 185.200 296.873,184.733 296.643,172.745 296.468 L 163.690 296.336 163.045 297.257 M39.280 306.722 C 40.238 307.683,39.998 319.696,39.000 320.806 C 37.442 322.538,30.382 321.471,29.831 319.420 C 29.540 318.335,29.547 308.838,29.840 307.746 C 30.291 306.064,37.814 305.248,39.280 306.722 M39.751 326.500 C 40.297 327.216,41.096 328.611,41.528 329.600 C 41.960 330.590,43.053 332.112,43.957 332.981 C 46.100 335.043,46.065 335.928,43.733 338.658 C 39.925 343.115,37.165 341.581,32.510 332.423 C 30.309 328.093,30.603 327.085,34.400 325.933 C 37.767 324.911,38.607 325.000,39.751 326.500 M56.919 338.043 C 62.858 338.645,63.200 338.947,63.200 343.592 C 63.200 347.877,62.808 348.206,58.094 347.871 C 49.752 347.279,46.175 346.040,46.523 343.865 C 47.293 339.044,48.844 336.998,51.400 337.430 C 51.840 337.504,54.323 337.780,56.919 338.043 M83.268 340.049 C 85.110 341.000,85.266 346.516,83.501 348.281 L 82.491 349.291 76.022 348.886 C 67.960 348.382,68.000 348.407,68.000 343.870 C 68.000 339.016,67.868 339.090,75.984 339.428 C 79.623 339.580,82.901 339.859,83.268 340.049 M106.010 340.626 C 106.224 341.190,106.400 342.872,106.400 344.364 C 106.400 348.180,106.154 348.346,99.743 348.852 C 89.193 349.686,89.033 349.614,89.263 344.171 C 89.464 339.406,89.091 339.600,98.059 339.600 L 105.620 339.600 106.010 340.626 " stroke="none" fill="#fbeb04" fill-rule="evenodd"></path></g></svg>